<?xml version="1.0" encoding="utf-8"?>
<!-- Generator: Adobe Illustrator 26.0.3, SVG Export Plug-In . SVG Version: 6.00 Build 0)  -->
<svg version="1.1" id="Layer_1" xmlns="http://www.w3.org/2000/svg" xmlns:xlink="http://www.w3.org/1999/xlink" x="0px" y="0px"
	 viewBox="0 0 221.9 66.7" style="enable-background:new 0 0 221.9 66.7;" xml:space="preserve">
<style type="text/css">
	.st0{fill:#425563;}
	.st1{fill:#00A3E0;}
</style>
<g>
	<g>
		<path class="st0" d="M33.2,36.4c0,5.8-1.5,10.3-4.4,13.6c-2.9,3.3-7,5-12.2,5c-5.3,0-9.4-1.6-12.3-4.9C1.4,46.9,0,42.3,0,36.3
			c0-5.9,1.4-10.4,4.3-13.7c2.9-3.2,7-4.8,12.3-4.8c5.2,0,9.2,1.6,12.1,4.9C31.8,26.1,33.2,30.6,33.2,36.4z M4.5,36.4
			c0,4.9,1,8.6,3.1,11.1s5.1,3.8,9.1,3.8s7-1.3,9.1-3.8c2-2.5,3.1-6.2,3.1-11.1s-1-8.5-3-11s-5-3.8-9-3.8s-7,1.3-9.1,3.8
			C5.5,27.9,4.5,31.6,4.5,36.4z"/>
		<path class="st0" d="M51.9,55c-1.8,0-3.4-0.3-4.8-1c-1.5-0.6-2.7-1.6-3.7-3h-0.3c0.2,1.6,0.3,3.1,0.3,4.5v11.1h-4.1V27.4h3.3
			l0.6,3.7h0.2c1.1-1.5,2.3-2.5,3.7-3.2c1.4-0.7,3-1,4.8-1c3.6,0,6.4,1.2,8.3,3.7s2.9,5.9,2.9,10.3s-1,7.9-3,10.3
			C58.1,53.7,55.4,55,51.9,55z M51.3,30.4c-2.8,0-4.8,0.8-6,2.3s-1.9,4-1.9,7.3v0.9c0,3.8,0.6,6.5,1.9,8.2c1.3,1.6,3.3,2.5,6.1,2.5
			c2.3,0,4.2-0.9,5.5-2.8s2-4.5,2-7.8c0-3.4-0.7-6-2-7.8C55.5,31.3,53.7,30.4,51.3,30.4z"/>
		<path class="st0" d="M86.3,47.1c0,2.5-0.9,4.5-2.8,5.8c-1.9,1.4-4.5,2-7.9,2c-3.6,0-6.4-0.6-8.4-1.7v-3.8c1.3,0.7,2.7,1.2,4.2,1.6
			s2.9,0.6,4.3,0.6c2.1,0,3.8-0.3,4.9-1c1.2-0.7,1.7-1.7,1.7-3.1c0-1.1-0.5-2-1.4-2.7s-2.7-1.6-5.3-2.7c-2.5-0.9-4.3-1.8-5.4-2.5
			s-1.9-1.5-2.4-2.4S67,35.3,67,34c0-2.2,0.9-3.9,2.7-5.2c1.8-1.3,4.3-1.9,7.4-1.9c2.9,0,5.8,0.6,8.5,1.8L84.1,32
			c-2.7-1.1-5.2-1.7-7.4-1.7c-1.9,0-3.4,0.3-4.4,0.9s-1.5,1.4-1.5,2.5c0,0.7,0.2,1.3,0.6,1.9s1,1,1.8,1.5s2.4,1.1,4.7,2
			c3.2,1.2,5.4,2.3,6.5,3.5C85.8,43.8,86.3,45.3,86.3,47.1z"/>
	</g>
	<g>
		<path class="st1" d="M97.9,40.1v14.4H92V18.4h10.2c4.7,0,8.1,0.9,10.3,2.6c2.2,1.7,3.4,4.4,3.4,7.9c0,4.5-2.3,7.7-7,9.6l10.2,16
			h-6.7l-8.6-14.4H97.9z M97.9,35.2h4.1c2.7,0,4.7-0.5,6-1.5s1.9-2.5,1.9-4.5s-0.7-3.5-2-4.4s-3.3-1.3-6-1.3H98v11.7H97.9z"/>
		<path class="st1" d="M139.4,54.5l-1.2-3.8H138c-1.3,1.7-2.6,2.8-4,3.4s-3,0.9-5.1,0.9c-2.7,0-4.8-0.7-6.3-2.2
			c-1.5-1.4-2.3-3.5-2.3-6.1c0-2.8,1-4.9,3.1-6.4s5.3-2.2,9.5-2.3l4.7-0.1v-1.6c0-1.7-0.4-3-1.2-3.9s-2.1-1.3-3.8-1.3
			c-1.4,0-2.7,0.2-4,0.6s-2.5,0.9-3.7,1.5l-1.9-4.1c1.5-0.8,3.1-1.4,4.9-1.8s3.4-0.6,5-0.6c3.5,0,6.1,0.8,7.9,2.3s2.7,3.9,2.7,7.1
			v18.4H139.4z M130.8,50.5c2.1,0,3.8-0.6,5.1-1.8c1.3-1.2,1.9-2.8,1.9-4.9v-2.4l-3.5,0.1c-2.7,0.1-4.7,0.6-6,1.4
			c-1.2,0.8-1.9,2.1-1.9,3.7c0,1.2,0.4,2.2,1.1,2.8S129.3,50.5,130.8,50.5z"/>
		<path class="st1" d="M173.3,54.5h-5.8V37.7c0-2.1-0.4-3.6-1.2-4.7c-0.8-1-2-1.5-3.7-1.5c-2.2,0-3.9,0.7-4.9,2.2s-1.6,3.9-1.6,7.3
			v13.6h-5.8V27.3h4.5l0.8,3.6h0.3c0.8-1.3,1.9-2.3,3.3-3s3-1.1,4.7-1.1c4.2,0,7,1.4,8.3,4.3h0.4c0.8-1.3,1.9-2.4,3.4-3.2
			c1.5-0.8,3.1-1.1,5-1.1c3.3,0,5.6,0.8,7.1,2.5c1.5,1.6,2.2,4.2,2.2,7.5v17.8h-5.8V37.8c0-2.1-0.4-3.6-1.2-4.7
			c-0.8-1-2-1.5-3.7-1.5c-2.3,0-3.9,0.7-4.9,2.1s-1.6,3.6-1.6,6.5v14.3H173.3z"/>
		<path class="st1" d="M211,55c-3.5,0-6.1-1.2-8-3.7h-0.3c0.2,2.3,0.3,3.7,0.3,4.2v11.2h-5.8V27.3h4.7c0.1,0.5,0.4,1.7,0.8,3.7h0.3
			c1.8-2.8,4.5-4.1,8.1-4.1c3.4,0,6.1,1.2,8,3.7s2.8,5.9,2.8,10.4s-1,7.9-2.9,10.4S214.5,55,211,55z M209.6,31.4c-2.3,0-4,0.7-5,2
			c-1.1,1.3-1.6,3.5-1.6,6.5v0.9c0,3.3,0.5,5.7,1.6,7.2s2.8,2.2,5.2,2.2c2,0,3.6-0.8,4.6-2.5c1.1-1.6,1.6-4,1.6-7
			c0-3.1-0.5-5.4-1.6-6.9C213.3,32.2,211.7,31.4,209.6,31.4z"/>
		<polygon class="st1" points="123,19.9 221.3,19.9 221.3,0 		"/>
	</g>
</g>
</svg>
